<mxfile host="app.diagrams.net" modified="2023-12-22T06:59:35.489Z" agent="Mozilla/5.0 (Windows NT 10.0; Win64; x64) AppleWebKit/537.36 (KHTML, like Gecko) Chrome/120.0.0.0 Safari/537.36 Edg/120.0.0.0" etag="_ijGmDy5APBF3BAaZ8PZ" version="22.1.11" type="github">
  <diagram name="第 1 页" id="wztHAu1T1exboQPkW35M">
    <mxGraphModel dx="255" dy="411" grid="1" gridSize="10" guides="1" tooltips="1" connect="1" arrows="1" fold="1" page="1" pageScale="1" pageWidth="827" pageHeight="1169" math="0" shadow="0">
      <root>
        <mxCell id="0" />
        <mxCell id="1" parent="0" />
        <mxCell id="1-UpIxTxY11woNKtDRhF-9" style="edgeStyle=orthogonalEdgeStyle;orthogonalLoop=1;jettySize=auto;html=1;exitX=0.5;exitY=1;exitDx=0;exitDy=0;entryX=0.5;entryY=0;entryDx=0;entryDy=0;curved=1;" edge="1" parent="1" source="1-UpIxTxY11woNKtDRhF-2" target="1-UpIxTxY11woNKtDRhF-3">
          <mxGeometry relative="1" as="geometry" />
        </mxCell>
        <mxCell id="1-UpIxTxY11woNKtDRhF-2" value="u" style="ellipse;whiteSpace=wrap;html=1;aspect=fixed;" vertex="1" parent="1">
          <mxGeometry x="380" y="130" width="20" height="20" as="geometry" />
        </mxCell>
        <mxCell id="1-UpIxTxY11woNKtDRhF-10" style="edgeStyle=orthogonalEdgeStyle;orthogonalLoop=1;jettySize=auto;html=1;exitX=0.5;exitY=1;exitDx=0;exitDy=0;entryX=0.5;entryY=0;entryDx=0;entryDy=0;curved=1;" edge="1" parent="1" source="1-UpIxTxY11woNKtDRhF-3" target="1-UpIxTxY11woNKtDRhF-4">
          <mxGeometry relative="1" as="geometry" />
        </mxCell>
        <mxCell id="1-UpIxTxY11woNKtDRhF-3" value="1" style="ellipse;whiteSpace=wrap;html=1;aspect=fixed;" vertex="1" parent="1">
          <mxGeometry x="380" y="220" width="20" height="20" as="geometry" />
        </mxCell>
        <mxCell id="1-UpIxTxY11woNKtDRhF-11" style="edgeStyle=orthogonalEdgeStyle;orthogonalLoop=1;jettySize=auto;html=1;exitX=0;exitY=0.5;exitDx=0;exitDy=0;entryX=0.5;entryY=0;entryDx=0;entryDy=0;curved=1;" edge="1" parent="1" source="1-UpIxTxY11woNKtDRhF-4" target="1-UpIxTxY11woNKtDRhF-7">
          <mxGeometry relative="1" as="geometry" />
        </mxCell>
        <mxCell id="1-UpIxTxY11woNKtDRhF-12" style="edgeStyle=orthogonalEdgeStyle;orthogonalLoop=1;jettySize=auto;html=1;exitX=0.5;exitY=1;exitDx=0;exitDy=0;entryX=0.5;entryY=0;entryDx=0;entryDy=0;curved=1;" edge="1" parent="1" source="1-UpIxTxY11woNKtDRhF-4" target="1-UpIxTxY11woNKtDRhF-5">
          <mxGeometry relative="1" as="geometry" />
        </mxCell>
        <mxCell id="1-UpIxTxY11woNKtDRhF-4" value="2" style="ellipse;whiteSpace=wrap;html=1;aspect=fixed;" vertex="1" parent="1">
          <mxGeometry x="380" y="300" width="20" height="20" as="geometry" />
        </mxCell>
        <mxCell id="1-UpIxTxY11woNKtDRhF-13" style="edgeStyle=orthogonalEdgeStyle;orthogonalLoop=1;jettySize=auto;html=1;exitX=1;exitY=0.5;exitDx=0;exitDy=0;entryX=0.5;entryY=1;entryDx=0;entryDy=0;curved=1;" edge="1" parent="1" source="1-UpIxTxY11woNKtDRhF-5" target="1-UpIxTxY11woNKtDRhF-6">
          <mxGeometry relative="1" as="geometry" />
        </mxCell>
        <mxCell id="1-UpIxTxY11woNKtDRhF-16" style="edgeStyle=orthogonalEdgeStyle;orthogonalLoop=1;jettySize=auto;html=1;exitX=0;exitY=0.5;exitDx=0;exitDy=0;entryX=0.5;entryY=1;entryDx=0;entryDy=0;curved=1;" edge="1" parent="1" source="1-UpIxTxY11woNKtDRhF-5" target="1-UpIxTxY11woNKtDRhF-8">
          <mxGeometry relative="1" as="geometry" />
        </mxCell>
        <mxCell id="1-UpIxTxY11woNKtDRhF-5" value="4" style="ellipse;whiteSpace=wrap;html=1;aspect=fixed;" vertex="1" parent="1">
          <mxGeometry x="380" y="450" width="20" height="20" as="geometry" />
        </mxCell>
        <mxCell id="1-UpIxTxY11woNKtDRhF-14" style="edgeStyle=orthogonalEdgeStyle;orthogonalLoop=1;jettySize=auto;html=1;exitX=0.5;exitY=0;exitDx=0;exitDy=0;entryX=1;entryY=0.5;entryDx=0;entryDy=0;curved=1;" edge="1" parent="1" source="1-UpIxTxY11woNKtDRhF-6" target="1-UpIxTxY11woNKtDRhF-2">
          <mxGeometry relative="1" as="geometry" />
        </mxCell>
        <mxCell id="1-UpIxTxY11woNKtDRhF-6" value="5" style="ellipse;whiteSpace=wrap;html=1;aspect=fixed;" vertex="1" parent="1">
          <mxGeometry x="470" y="280" width="20" height="20" as="geometry" />
        </mxCell>
        <mxCell id="1-UpIxTxY11woNKtDRhF-7" value="6" style="ellipse;whiteSpace=wrap;html=1;aspect=fixed;" vertex="1" parent="1">
          <mxGeometry x="340" y="380" width="20" height="20" as="geometry" />
        </mxCell>
        <mxCell id="1-UpIxTxY11woNKtDRhF-15" style="edgeStyle=orthogonalEdgeStyle;orthogonalLoop=1;jettySize=auto;html=1;exitX=0.5;exitY=0;exitDx=0;exitDy=0;entryX=0;entryY=0.5;entryDx=0;entryDy=0;curved=1;" edge="1" parent="1" source="1-UpIxTxY11woNKtDRhF-8" target="1-UpIxTxY11woNKtDRhF-2">
          <mxGeometry relative="1" as="geometry" />
        </mxCell>
        <mxCell id="1-UpIxTxY11woNKtDRhF-8" value="7" style="ellipse;whiteSpace=wrap;html=1;aspect=fixed;" vertex="1" parent="1">
          <mxGeometry x="280" y="280" width="20" height="20" as="geometry" />
        </mxCell>
      </root>
    </mxGraphModel>
  </diagram>
</mxfile>
